<svg xmlns="http://www.w3.org/2000/svg" xmlns:xlink="http://www.w3.org/1999/xlink" width="500" zoomAndPan="magnify" viewBox="0 0 375 374.999991" height="500" preserveAspectRatio="xMidYMid meet" version="1.0"><defs><clipPath id="84b3cde69b"><path d="M 0 4 L 375 4 L 375 371.25 L 0 371.25 Z M 0 4 " clip-rule="nonzero"/></clipPath></defs><g clip-path="url(#84b3cde69b)"><path fill="#284b63" d="M 375 147.210938 C 375 146.152344 374.578125 145.136719 373.832031 144.390625 L 349.242188 119.800781 L 373.832031 95.210938 C 374.578125 94.464844 375 93.453125 375 92.394531 C 375 91.335938 374.578125 90.324219 373.832031 89.578125 L 289.5 5.246094 C 288.007812 3.75 285.359375 3.75 283.863281 5.246094 L 201.496094 87.453125 L 119.289062 5.246094 C 117.792969 3.75 115.144531 3.75 113.648438 5.246094 L 1.167969 117.507812 C 0.421875 118.253906 0 119.265625 0 120.324219 C 0 121.382812 0.421875 122.394531 1.167969 123.140625 L 25.78125 147.757812 L 1.167969 172.320312 C 0.421875 173.070312 0 174.085938 0 175.140625 C 0 176.199219 0.421875 177.210938 1.167969 177.957031 L 25.78125 202.570312 L 1.167969 227.136719 C 0.421875 227.886719 0 228.898438 0 229.957031 C 0 231.015625 0.421875 232.03125 1.167969 232.777344 L 25.78125 257.390625 L 1.167969 281.953125 C 0.421875 282.703125 0 283.714844 0 284.773438 C 0 285.832031 0.421875 286.84375 1.167969 287.589844 L 25.78125 312.207031 L 1.167969 336.769531 C 0.421875 337.519531 0 338.53125 0 339.589844 C 0 340.644531 0.421875 341.660156 1.167969 342.40625 L 28.792969 370.03125 C 29.542969 370.78125 30.554688 371.203125 31.613281 371.203125 C 32.671875 371.203125 33.683594 370.78125 34.429688 370.03125 L 116.355469 288.105469 L 199.007812 370.03125 C 199.757812 370.78125 200.765625 371.203125 201.828125 371.203125 C 202.886719 371.203125 203.898438 370.78125 204.644531 370.03125 L 286.570312 288.105469 L 340.566406 342.101562 C 341.34375 342.878906 342.363281 343.269531 343.382812 343.269531 C 344.402344 343.269531 345.421875 342.878906 346.203125 342.101562 L 373.828125 314.476562 C 374.578125 313.730469 374.996094 312.714844 374.996094 311.660156 C 374.996094 310.601562 374.578125 309.585938 373.828125 308.839844 L 349.242188 284.25 L 373.832031 259.660156 C 374.578125 258.914062 375 257.902344 375 256.84375 C 375 255.785156 374.578125 254.773438 373.832031 254.023438 L 349.242188 229.433594 L 373.832031 204.84375 C 374.578125 204.097656 375 203.082031 375 202.027344 C 375 200.96875 374.578125 199.957031 373.832031 199.210938 L 349.242188 174.617188 L 373.832031 150.03125 C 374.578125 149.28125 375 148.265625 375 147.210938 Z M 358.941406 318.09375 L 343.386719 333.644531 L 264.804688 255.058594 L 286.574219 233.289062 L 365.378906 311.660156 Z M 187.597656 347.347656 L 179.839844 339.589844 L 258.75 261.113281 L 266.289062 268.65625 L 280.515625 282.886719 L 201.828125 361.578125 Z M 17.386719 347.347656 L 9.625 339.589844 L 88.535156 261.113281 L 96.074219 268.65625 L 110.300781 282.886719 L 31.613281 361.578125 Z M 116.46875 13.703125 L 195.160156 92.394531 L 173.390625 114.164062 L 94.484375 35.6875 Z M 286.683594 13.703125 L 365.378906 92.394531 L 358.941406 98.828125 L 343.605469 114.164062 L 264.703125 35.691406 L 280.253906 20.136719 Z M 258.75 96.664062 L 266.289062 104.207031 L 280.40625 118.328125 L 201.640625 196.941406 L 187.597656 182.902344 L 179.839844 175.140625 Z M 201.640625 251.757812 L 187.597656 237.71875 L 179.839844 229.957031 L 258.75 151.484375 L 266.289062 159.027344 L 280.40625 173.144531 Z M 188.726562 208.460938 L 173.390625 223.796875 L 94.589844 145.425781 L 116.359375 123.65625 L 195.160156 202.027344 Z M 94.589844 200.242188 L 116.359375 178.472656 L 195.160156 256.839844 L 188.726562 263.277344 L 173.390625 278.613281 Z M 258.75 206.296875 L 266.289062 213.84375 L 280.40625 227.960938 L 201.640625 306.574219 L 187.597656 292.535156 L 179.839844 284.773438 Z M 280.40625 63.511719 L 201.640625 142.125 L 187.597656 128.085938 L 179.839844 120.324219 L 258.53125 41.632812 L 266.292969 49.394531 Z M 188.726562 153.644531 L 173.390625 168.980469 L 94.589844 90.609375 L 116.359375 68.839844 L 195.160156 147.210938 Z M 88.316406 41.632812 L 96.078125 49.390625 L 110.195312 63.511719 L 31.425781 142.125 L 9.625 120.324219 Z M 88.535156 96.664062 L 96.074219 104.207031 L 110.191406 118.328125 L 31.421875 196.941406 L 9.621094 175.140625 Z M 88.535156 151.480469 L 96.074219 159.023438 L 110.191406 173.144531 L 31.421875 251.757812 L 17.382812 237.714844 L 9.621094 229.957031 Z M 88.535156 206.296875 L 96.074219 213.84375 L 110.191406 227.960938 L 31.421875 306.574219 L 9.621094 284.773438 Z M 94.589844 255.058594 L 116.359375 233.289062 L 195.160156 311.660156 L 188.726562 318.09375 L 173.171875 333.644531 Z M 358.941406 263.277344 L 343.605469 278.613281 L 264.804688 200.246094 L 280.355469 184.691406 L 286.574219 178.472656 L 365.378906 256.84375 Z M 358.941406 208.460938 L 343.605469 223.796875 L 264.804688 145.425781 L 286.574219 123.65625 L 365.378906 202.027344 Z M 358.941406 153.644531 L 343.605469 168.980469 L 264.804688 90.609375 L 286.574219 68.839844 L 365.378906 147.210938 Z M 358.941406 153.644531 " fill-opacity="1" fill-rule="nonzero"/></g></svg>