<svg xmlns="http://www.w3.org/2000/svg" xmlns:xlink="http://www.w3.org/1999/xlink" width="500" zoomAndPan="magnify" viewBox="0 0 375 374.999991" height="500" preserveAspectRatio="xMidYMid meet" version="1.0"><path fill="#284b63" d="M 374.964844 134.15625 L 240.808594 0 L 237.410156 3.46875 C 173.914062 67.410156 133.304688 135.1875 128.949219 183.328125 C 125.257812 182.441406 121.199219 183.402344 118.316406 186.28125 L 109.164062 195.289062 C 104.804688 199.644531 104.804688 206.808594 109.164062 211.238281 L 114.257812 216.332031 C 75.863281 241.433594 33.1875 275.839844 22.777344 286.253906 C 2.105469 306.925781 0.0351562 338.527344 18.199219 356.761719 C 36.363281 375 67.964844 372.933594 88.710938 352.183594 C 99.121094 341.773438 133.527344 299.023438 158.632812 260.707031 L 163.726562 265.800781 C 168.082031 270.15625 175.242188 270.15625 179.671875 265.800781 L 188.753906 256.71875 C 191.632812 253.839844 192.59375 249.777344 191.707031 246.085938 C 239.847656 241.730469 307.628906 201.046875 371.566406 137.625 Z M 81.84375 345.394531 C 64.9375 362.300781 39.390625 364.367188 24.992188 349.96875 C 10.59375 335.574219 12.589844 310.027344 29.570312 293.117188 C 39.90625 282.78125 82.953125 248.226562 121.199219 223.347656 L 151.617188 253.765625 C 126.808594 292.011719 92.179688 335.054688 81.84375 345.394531 Z M 181.886719 249.925781 L 172.808594 259.007812 C 172.214844 259.597656 171.183594 259.597656 170.519531 259.007812 L 115.957031 204.445312 C 115.363281 203.855469 115.363281 202.820312 115.957031 202.15625 L 125.035156 193.074219 C 125.628906 192.484375 126.660156 192.484375 127.324219 193.074219 L 181.886719 247.636719 C 182.554688 248.226562 182.554688 249.261719 181.886719 249.925781 Z M 265.691406 208.652344 C 234.605469 226.667969 206.695312 236.414062 184.769531 236.785156 L 138.179688 190.195312 C 138.546875 168.265625 148.292969 140.355469 166.308594 109.273438 C 184.398438 78.042969 210.167969 45.039062 240.882812 13.660156 L 361.304688 134.082031 C 329.851562 164.796875 296.921875 190.5625 265.691406 208.652344 Z M 38.652344 306.703125 C 30.53125 314.824219 30.53125 328.117188 38.652344 336.238281 C 46.773438 344.359375 60.0625 344.359375 68.183594 336.238281 C 76.308594 328.117188 76.308594 314.824219 68.183594 306.703125 C 60.0625 298.582031 46.847656 298.582031 38.652344 306.703125 Z M 61.390625 329.445312 C 57.035156 333.800781 49.875 333.800781 45.445312 329.445312 C 41.089844 325.089844 41.089844 317.925781 45.445312 313.496094 C 49.800781 309.140625 56.960938 309.140625 61.390625 313.496094 C 65.824219 317.925781 65.824219 325.089844 61.390625 329.445312 Z M 61.390625 329.445312 " fill-opacity="1" fill-rule="nonzero"/></svg>