<svg xmlns="http://www.w3.org/2000/svg" xmlns:xlink="http://www.w3.org/1999/xlink" width="500" zoomAndPan="magnify" viewBox="0 0 375 374.999991" height="500" preserveAspectRatio="xMidYMid meet" version="1.0"><defs><clipPath id="cfe49ef9e4"><path d="M 2.8125 0 L 374.8125 0 L 374.8125 373 L 2.8125 373 Z M 2.8125 0 " clip-rule="nonzero"/></clipPath></defs><g clip-path="url(#cfe49ef9e4)"><path fill="#284b63" d="M 319.636719 28.839844 L 311.242188 28.839844 L 311.242188 19.738281 C 311.242188 19.097656 311.210938 18.453125 311.148438 17.816406 C 311.082031 17.175781 310.988281 16.539062 310.863281 15.910156 C 310.738281 15.277344 310.582031 14.65625 310.394531 14.039062 C 310.207031 13.425781 309.988281 12.820312 309.742188 12.226562 C 309.496094 11.632812 309.222656 11.050781 308.917969 10.484375 C 308.617188 9.917969 308.285156 9.367188 307.929688 8.832031 C 307.570312 8.296875 307.1875 7.78125 306.78125 7.285156 C 306.375 6.785156 305.941406 6.3125 305.488281 5.855469 C 305.03125 5.402344 304.558594 4.96875 304.0625 4.5625 C 303.5625 4.152344 303.046875 3.769531 302.515625 3.414062 C 301.980469 3.054688 301.429688 2.726562 300.863281 2.421875 C 300.296875 2.117188 299.714844 1.84375 299.121094 1.597656 C 298.527344 1.351562 297.921875 1.132812 297.308594 0.945312 C 296.691406 0.761719 296.070312 0.601562 295.441406 0.476562 C 294.808594 0.351562 294.175781 0.257812 293.535156 0.191406 C 292.894531 0.128906 292.253906 0.0976562 291.609375 0.0976562 L 22.449219 0.0976562 C 21.808594 0.0976562 21.167969 0.128906 20.527344 0.191406 C 19.886719 0.257812 19.253906 0.351562 18.621094 0.476562 C 17.992188 0.601562 17.367188 0.757812 16.753906 0.945312 C 16.136719 1.132812 15.535156 1.351562 14.941406 1.597656 C 14.347656 1.84375 13.765625 2.117188 13.199219 2.421875 C 12.632812 2.722656 12.082031 3.054688 11.546875 3.414062 C 11.011719 3.769531 10.496094 4.152344 10 4.558594 C 9.503906 4.96875 9.027344 5.398438 8.570312 5.855469 C 8.117188 6.308594 7.6875 6.785156 7.277344 7.28125 C 6.871094 7.78125 6.488281 8.296875 6.128906 8.832031 C 5.773438 9.363281 5.441406 9.914062 5.136719 10.484375 C 4.835938 11.050781 4.558594 11.628906 4.3125 12.226562 C 4.066406 12.820312 3.851562 13.421875 3.664062 14.039062 C 3.476562 14.652344 3.320312 15.277344 3.195312 15.90625 C 3.066406 16.539062 2.972656 17.175781 2.910156 17.8125 C 2.84375 18.453125 2.8125 19.097656 2.8125 19.738281 L 2.8125 71.390625 C 2.8125 72.035156 2.84375 72.675781 2.910156 73.316406 C 2.972656 73.957031 3.066406 74.589844 3.195312 75.222656 C 3.320312 75.851562 3.476562 76.476562 3.664062 77.089844 C 3.851562 77.707031 4.066406 78.3125 4.3125 78.90625 C 4.558594 79.5 4.835938 80.078125 5.136719 80.644531 C 5.441406 81.214844 5.769531 81.765625 6.128906 82.296875 C 6.484375 82.832031 6.867188 83.347656 7.277344 83.847656 C 7.683594 84.34375 8.113281 84.820312 8.570312 85.273438 C 9.023438 85.730469 9.5 86.160156 9.996094 86.566406 C 10.492188 86.976562 11.007812 87.359375 11.542969 87.714844 C 12.078125 88.074219 12.628906 88.402344 13.195312 88.707031 C 13.761719 89.011719 14.34375 89.285156 14.9375 89.53125 C 15.53125 89.777344 16.132812 89.996094 16.75 90.183594 C 17.363281 90.371094 17.984375 90.527344 18.617188 90.652344 C 19.246094 90.777344 19.882812 90.875 20.519531 90.9375 C 21.160156 91 21.800781 91.03125 22.445312 91.035156 L 291.609375 91.035156 C 292.253906 91.035156 292.894531 91 293.535156 90.9375 C 294.175781 90.875 294.808594 90.777344 295.441406 90.652344 C 296.070312 90.527344 296.691406 90.371094 297.308594 90.183594 C 297.921875 89.996094 298.527344 89.78125 299.121094 89.535156 C 299.714844 89.285156 300.296875 89.011719 300.863281 88.707031 C 301.429688 88.40625 301.980469 88.074219 302.515625 87.71875 C 303.046875 87.359375 303.5625 86.976562 304.058594 86.570312 C 304.558594 86.160156 305.03125 85.730469 305.488281 85.273438 C 305.941406 84.820312 306.375 84.34375 306.78125 83.847656 C 307.1875 83.351562 307.570312 82.835938 307.929688 82.300781 C 308.285156 81.765625 308.617188 81.214844 308.917969 80.648438 C 309.222656 80.078125 309.496094 79.5 309.742188 78.90625 C 309.988281 78.3125 310.207031 77.707031 310.394531 77.089844 C 310.582031 76.476562 310.738281 75.851562 310.863281 75.222656 C 310.988281 74.589844 311.082031 73.957031 311.148438 73.316406 C 311.210938 72.675781 311.242188 72.035156 311.242188 71.390625 L 311.242188 62.304688 L 319.636719 62.304688 C 320.351562 62.3125 321.066406 62.355469 321.777344 62.433594 C 322.488281 62.511719 323.195312 62.621094 323.898438 62.769531 C 324.597656 62.917969 325.289062 63.097656 325.972656 63.3125 C 326.65625 63.527344 327.324219 63.773438 327.984375 64.050781 C 328.644531 64.332031 329.285156 64.644531 329.914062 64.984375 C 330.542969 65.328125 331.152344 65.699219 331.746094 66.101562 C 332.339844 66.503906 332.910156 66.933594 333.460938 67.390625 C 334.011719 67.851562 334.539062 68.332031 335.039062 68.84375 C 335.542969 69.351562 336.019531 69.886719 336.472656 70.441406 C 336.921875 70.996094 337.347656 71.574219 337.742188 72.171875 C 338.136719 72.765625 338.5 73.382812 338.835938 74.015625 C 339.171875 74.648438 339.476562 75.296875 339.746094 75.957031 C 340.019531 76.621094 340.257812 77.292969 340.464844 77.980469 C 340.671875 78.664062 340.84375 79.359375 340.980469 80.0625 C 341.121094 80.765625 341.226562 81.472656 341.292969 82.183594 C 341.363281 82.898438 341.398438 83.613281 341.398438 84.328125 C 341.398438 85.042969 341.363281 85.757812 341.292969 86.472656 C 341.226562 87.183594 341.121094 87.890625 340.980469 88.59375 C 340.84375 89.296875 340.671875 89.992188 340.464844 90.675781 C 340.257812 91.363281 340.019531 92.035156 339.746094 92.699219 C 339.476562 93.359375 339.171875 94.007812 338.835938 94.640625 C 338.5 95.273438 338.136719 95.886719 337.742188 96.484375 C 337.347656 97.082031 336.921875 97.660156 336.472656 98.214844 C 336.019531 98.769531 335.542969 99.304688 335.039062 99.8125 C 334.539062 100.320312 334.011719 100.804688 333.460938 101.261719 C 332.910156 101.722656 332.339844 102.152344 331.746094 102.554688 C 331.152344 102.957031 330.542969 103.328125 329.914062 103.671875 C 329.285156 104.011719 328.644531 104.324219 327.984375 104.601562 C 327.324219 104.882812 326.65625 105.128906 325.972656 105.34375 C 325.289062 105.558594 324.597656 105.738281 323.894531 105.886719 C 323.195312 106.03125 322.488281 106.144531 321.777344 106.222656 C 321.066406 106.300781 320.351562 106.34375 319.636719 106.351562 L 203.5 106.351562 C 202.476562 106.351562 201.457031 106.40625 200.4375 106.507812 C 199.417969 106.605469 198.40625 106.757812 197.402344 106.957031 C 196.398438 107.160156 195.40625 107.410156 194.429688 107.707031 C 193.449219 108.003906 192.484375 108.351562 191.539062 108.742188 C 190.59375 109.136719 189.671875 109.574219 188.769531 110.054688 C 187.867188 110.539062 186.988281 111.066406 186.136719 111.636719 C 185.285156 112.203125 184.464844 112.8125 183.675781 113.464844 C 182.882812 114.113281 182.125 114.800781 181.402344 115.523438 C 180.679688 116.25 179.992188 117.007812 179.339844 117.796875 C 178.691406 118.589844 178.082031 119.410156 177.515625 120.261719 C 176.945312 121.113281 176.417969 121.992188 175.9375 122.894531 C 175.453125 123.796875 175.015625 124.722656 174.625 125.667969 C 174.230469 126.613281 173.886719 127.578125 173.589844 128.558594 C 173.289062 129.539062 173.039062 130.53125 172.839844 131.535156 C 172.640625 132.539062 172.488281 133.550781 172.386719 134.570312 C 172.285156 135.589844 172.234375 136.609375 172.234375 137.632812 L 172.234375 159.425781 L 111.078125 159.425781 C 110.746094 159.425781 110.414062 159.460938 110.085938 159.523438 C 109.757812 159.589844 109.441406 159.6875 109.132812 159.816406 C 108.824219 159.941406 108.53125 160.101562 108.25 160.285156 C 107.972656 160.472656 107.714844 160.683594 107.480469 160.917969 C 107.242188 161.15625 107.03125 161.414062 106.847656 161.691406 C 106.660156 161.96875 106.503906 162.261719 106.375 162.570312 C 106.25 162.878906 106.152344 163.199219 106.085938 163.527344 C 106.023438 163.855469 105.988281 164.183594 105.988281 164.519531 L 105.988281 190.710938 C 105.992188 191.636719 106.035156 192.566406 106.128906 193.488281 C 106.222656 194.414062 106.359375 195.332031 106.539062 196.242188 C 106.722656 197.152344 106.949219 198.054688 107.21875 198.941406 C 107.488281 199.832031 107.800781 200.703125 108.15625 201.5625 C 108.511719 202.421875 108.910156 203.257812 109.347656 204.078125 C 109.785156 204.898438 110.261719 205.691406 110.777344 206.464844 C 111.292969 207.238281 111.847656 207.980469 112.4375 208.699219 C 113.023438 209.417969 113.648438 210.105469 114.304688 210.761719 C 114.960938 211.417969 115.648438 212.042969 116.367188 212.632812 C 117.082031 213.222656 117.828125 213.773438 118.601562 214.289062 C 119.371094 214.808594 120.167969 215.285156 120.984375 215.722656 C 121.804688 216.160156 122.644531 216.558594 123.5 216.914062 C 124.359375 217.269531 125.230469 217.582031 126.117188 217.851562 C 127.007812 218.125 127.90625 218.351562 128.816406 218.53125 C 129.726562 218.714844 130.644531 218.851562 131.570312 218.941406 C 132.492188 219.035156 133.417969 219.082031 134.347656 219.082031 L 153.375 219.082031 L 143.554688 322.632812 C 143.40625 324.207031 143.339844 325.789062 143.355469 327.375 C 143.371094 328.960938 143.46875 330.539062 143.648438 332.113281 C 143.824219 333.6875 144.085938 335.25 144.429688 336.796875 C 144.769531 338.34375 145.191406 339.867188 145.695312 341.371094 C 146.195312 342.875 146.773438 344.347656 147.425781 345.792969 C 148.082031 347.234375 148.808594 348.640625 149.609375 350.007812 C 150.410156 351.375 151.28125 352.695312 152.21875 353.972656 C 153.15625 355.25 154.15625 356.472656 155.222656 357.644531 C 156.289062 358.816406 157.414062 359.933594 158.59375 360.988281 C 159.777344 362.042969 161.011719 363.03125 162.296875 363.960938 C 163.582031 364.886719 164.910156 365.742188 166.285156 366.53125 C 167.65625 367.320312 169.070312 368.035156 170.519531 368.675781 C 171.964844 369.316406 173.445312 369.878906 174.953125 370.367188 C 176.460938 370.851562 177.988281 371.261719 179.539062 371.585938 C 181.085938 371.914062 182.648438 372.160156 184.226562 372.324219 C 185.800781 372.488281 187.378906 372.574219 188.964844 372.574219 C 190.546875 372.574219 192.128906 372.492188 193.703125 372.324219 C 195.277344 372.160156 196.839844 371.914062 198.390625 371.585938 C 199.941406 371.261719 201.46875 370.851562 202.976562 370.367188 C 204.484375 369.878906 205.960938 369.316406 207.410156 368.675781 C 208.859375 368.035156 210.269531 367.320312 211.644531 366.53125 C 213.019531 365.742188 214.347656 364.886719 215.632812 363.960938 C 216.917969 363.03125 218.152344 362.042969 219.332031 360.988281 C 220.515625 359.933594 221.636719 358.816406 222.703125 357.644531 C 223.769531 356.472656 224.769531 355.25 225.710938 353.972656 C 226.648438 352.695312 227.519531 351.375 228.316406 350.007812 C 229.117188 348.640625 229.847656 347.234375 230.5 345.792969 C 231.15625 344.347656 231.734375 342.875 232.234375 341.371094 C 232.734375 339.867188 233.15625 338.34375 233.5 336.796875 C 233.839844 335.25 234.101562 333.6875 234.28125 332.113281 C 234.460938 330.539062 234.558594 328.960938 234.574219 327.375 C 234.589844 325.789062 234.519531 324.207031 234.371094 322.632812 L 224.550781 219.082031 L 243.578125 219.082031 C 244.503906 219.082031 245.433594 219.035156 246.355469 218.941406 C 247.28125 218.851562 248.195312 218.714844 249.105469 218.53125 C 250.019531 218.351562 250.917969 218.125 251.804688 217.851562 C 252.695312 217.582031 253.566406 217.269531 254.425781 216.914062 C 255.28125 216.558594 256.121094 216.160156 256.9375 215.722656 C 257.757812 215.285156 258.550781 214.808594 259.324219 214.289062 C 260.097656 213.773438 260.839844 213.222656 261.558594 212.632812 C 262.277344 212.042969 262.964844 211.417969 263.621094 210.761719 C 264.277344 210.105469 264.898438 209.417969 265.488281 208.699219 C 266.078125 207.980469 266.628906 207.238281 267.144531 206.464844 C 267.664062 205.691406 268.140625 204.898438 268.578125 204.078125 C 269.015625 203.257812 269.414062 202.421875 269.769531 201.5625 C 270.125 200.703125 270.4375 199.832031 270.707031 198.941406 C 270.976562 198.054688 271.203125 197.152344 271.386719 196.242188 C 271.566406 195.332031 271.703125 194.414062 271.796875 193.488281 C 271.886719 192.566406 271.933594 191.636719 271.933594 190.710938 L 271.933594 164.519531 C 271.933594 164.183594 271.902344 163.855469 271.835938 163.527344 C 271.773438 163.199219 271.675781 162.878906 271.546875 162.570312 C 271.421875 162.261719 271.265625 161.96875 271.078125 161.691406 C 270.890625 161.410156 270.679688 161.15625 270.445312 160.917969 C 270.207031 160.679688 269.953125 160.46875 269.671875 160.285156 C 269.394531 160.097656 269.101562 159.941406 268.792969 159.8125 C 268.484375 159.6875 268.167969 159.589844 267.839844 159.523438 C 267.511719 159.460938 267.179688 159.425781 266.84375 159.425781 L 205.6875 159.425781 L 205.6875 139.816406 L 319.636719 139.816406 C 321.445312 139.804688 323.25 139.703125 325.046875 139.511719 C 326.84375 139.324219 328.628906 139.046875 330.402344 138.683594 C 332.171875 138.316406 333.921875 137.867188 335.648438 137.332031 C 337.375 136.796875 339.070312 136.179688 340.738281 135.476562 C 342.40625 134.777344 344.035156 133.996094 345.625 133.136719 C 347.214844 132.273438 348.757812 131.339844 350.257812 130.328125 C 351.757812 129.316406 353.203125 128.230469 354.59375 127.078125 C 355.988281 125.925781 357.320312 124.707031 358.597656 123.421875 C 359.871094 122.140625 361.078125 120.796875 362.21875 119.394531 C 363.363281 117.992188 364.433594 116.539062 365.433594 115.03125 C 366.433594 113.523438 367.359375 111.972656 368.207031 110.375 C 369.058594 108.777344 369.828125 107.144531 370.515625 105.46875 C 371.203125 103.796875 371.808594 102.09375 372.332031 100.363281 C 372.855469 98.632812 373.292969 96.878906 373.644531 95.105469 C 373.992188 93.328125 374.257812 91.542969 374.433594 89.742188 C 374.609375 87.941406 374.699219 86.136719 374.699219 84.328125 C 374.699219 82.519531 374.609375 80.714844 374.433594 78.914062 C 374.257812 77.113281 373.992188 75.324219 373.644531 73.550781 C 373.292969 71.777344 372.855469 70.023438 372.332031 68.292969 C 371.808594 66.558594 371.203125 64.859375 370.515625 63.183594 C 369.828125 61.511719 369.058594 59.878906 368.207031 58.28125 C 367.359375 56.683594 366.433594 55.132812 365.433594 53.625 C 364.433594 52.117188 363.363281 50.664062 362.21875 49.261719 C 361.078125 47.859375 359.871094 46.515625 358.597656 45.230469 C 357.320312 43.949219 355.988281 42.730469 354.59375 41.578125 C 353.203125 40.421875 351.757812 39.339844 350.257812 38.328125 C 348.757812 37.316406 347.214844 36.382812 345.625 35.519531 C 344.035156 34.660156 342.40625 33.878906 340.738281 33.175781 C 339.070312 32.476562 337.375 31.859375 335.648438 31.324219 C 333.921875 30.785156 332.171875 30.335938 330.402344 29.972656 C 328.628906 29.609375 326.84375 29.332031 325.046875 29.144531 C 323.25 28.953125 321.445312 28.851562 319.636719 28.839844 Z M 301.0625 71.390625 C 301.0625 72.011719 301.003906 72.628906 300.878906 73.234375 C 300.757812 73.84375 300.578125 74.433594 300.339844 75.007812 C 300.105469 75.582031 299.8125 76.128906 299.46875 76.644531 C 299.121094 77.160156 298.730469 77.636719 298.292969 78.074219 C 297.851562 78.515625 297.375 78.90625 296.859375 79.25 C 296.34375 79.597656 295.800781 79.886719 295.226562 80.125 C 294.652344 80.363281 294.0625 80.542969 293.453125 80.664062 C 292.847656 80.785156 292.230469 80.847656 291.609375 80.847656 L 22.449219 80.847656 C 21.832031 80.847656 21.214844 80.789062 20.605469 80.667969 C 19.996094 80.542969 19.40625 80.367188 18.832031 80.128906 C 18.261719 79.890625 17.714844 79.597656 17.199219 79.253906 C 16.683594 78.910156 16.207031 78.515625 15.765625 78.078125 C 15.328125 77.636719 14.933594 77.160156 14.589844 76.644531 C 14.246094 76.128906 13.953125 75.582031 13.714844 75.011719 C 13.476562 74.4375 13.296875 73.84375 13.175781 73.238281 C 13.054688 72.628906 12.992188 72.011719 12.992188 71.390625 L 12.992188 19.738281 C 12.992188 19.117188 13.054688 18.503906 13.175781 17.894531 C 13.296875 17.285156 13.476562 16.695312 13.714844 16.121094 C 13.953125 15.546875 14.246094 15.003906 14.589844 14.484375 C 14.933594 13.96875 15.328125 13.492188 15.765625 13.054688 C 16.207031 12.613281 16.683594 12.222656 17.199219 11.878906 C 17.714844 11.53125 18.261719 11.242188 18.832031 11.003906 C 19.40625 10.765625 19.996094 10.585938 20.605469 10.464844 C 21.214844 10.34375 21.832031 10.28125 22.449219 10.28125 L 291.609375 10.28125 C 292.230469 10.28125 292.847656 10.34375 293.453125 10.464844 C 294.0625 10.585938 294.652344 10.765625 295.226562 11.003906 C 295.800781 11.242188 296.34375 11.535156 296.859375 11.878906 C 297.375 12.222656 297.851562 12.617188 298.292969 13.054688 C 298.730469 13.492188 299.121094 13.972656 299.46875 14.488281 C 299.8125 15.003906 300.105469 15.546875 300.339844 16.121094 C 300.578125 16.695312 300.757812 17.285156 300.878906 17.894531 C 301.003906 18.503906 301.0625 19.117188 301.0625 19.738281 Z M 224.234375 323.589844 C 224.351562 324.816406 224.40625 326.046875 224.394531 327.277344 C 224.382812 328.507812 224.304688 329.734375 224.167969 330.957031 C 224.027344 332.183594 223.824219 333.394531 223.558594 334.597656 C 223.292969 335.800781 222.96875 336.984375 222.578125 338.152344 C 222.1875 339.320312 221.742188 340.464844 221.230469 341.585938 C 220.722656 342.707031 220.160156 343.800781 219.535156 344.863281 C 218.914062 345.925781 218.238281 346.953125 217.511719 347.945312 C 216.78125 348.9375 216.003906 349.886719 215.175781 350.796875 C 214.347656 351.710938 213.472656 352.574219 212.554688 353.394531 C 211.636719 354.214844 210.679688 354.984375 209.679688 355.703125 C 208.679688 356.421875 207.648438 357.089844 206.582031 357.699219 C 205.511719 358.3125 204.417969 358.867188 203.289062 359.367188 C 202.164062 359.863281 201.015625 360.300781 199.84375 360.679688 C 198.675781 361.058594 197.488281 361.375 196.28125 361.628906 C 195.078125 361.882812 193.863281 362.070312 192.640625 362.199219 C 191.414062 362.328125 190.1875 362.390625 188.957031 362.390625 C 187.726562 362.390625 186.5 362.328125 185.277344 362.199219 C 184.050781 362.070312 182.839844 361.878906 181.632812 361.625 C 180.429688 361.371094 179.242188 361.054688 178.070312 360.675781 C 176.902344 360.300781 175.753906 359.859375 174.628906 359.363281 C 173.5 358.867188 172.40625 358.308594 171.335938 357.699219 C 170.269531 357.085938 169.238281 356.421875 168.238281 355.699219 C 167.242188 354.980469 166.28125 354.210938 165.363281 353.390625 C 164.445312 352.570312 163.574219 351.707031 162.746094 350.796875 C 161.917969 349.882812 161.136719 348.933594 160.410156 347.941406 C 159.679688 346.949219 159.003906 345.921875 158.382812 344.859375 C 157.761719 343.796875 157.195312 342.707031 156.6875 341.585938 C 156.179688 340.464844 155.730469 339.320312 155.34375 338.152344 C 154.953125 336.984375 154.625 335.796875 154.359375 334.597656 C 154.09375 333.394531 153.890625 332.179688 153.753906 330.957031 C 153.613281 329.734375 153.539062 328.507812 153.527344 327.277344 C 153.515625 326.046875 153.566406 324.816406 153.683594 323.589844 L 163.59375 219.082031 L 214.328125 219.082031 Z M 261.753906 190.699219 C 261.753906 191.296875 261.726562 191.890625 261.664062 192.484375 C 261.605469 193.074219 261.519531 193.664062 261.402344 194.246094 C 261.285156 194.832031 261.140625 195.410156 260.96875 195.976562 C 260.792969 196.546875 260.59375 197.109375 260.367188 197.65625 C 260.136719 198.207031 259.882812 198.746094 259.601562 199.269531 C 259.320312 199.796875 259.015625 200.304688 258.683594 200.800781 C 258.355469 201.296875 258 201.773438 257.621094 202.234375 C 257.246094 202.695312 256.847656 203.132812 256.425781 203.554688 C 256.003906 203.976562 255.5625 204.375 255.105469 204.753906 C 254.644531 205.132812 254.167969 205.484375 253.671875 205.816406 C 253.175781 206.148438 252.667969 206.453125 252.140625 206.734375 C 251.617188 207.015625 251.082031 207.269531 250.53125 207.5 C 249.980469 207.726562 249.421875 207.925781 248.851562 208.101562 C 248.28125 208.273438 247.707031 208.417969 247.121094 208.535156 C 246.539062 208.652344 245.949219 208.738281 245.359375 208.800781 C 244.765625 208.859375 244.171875 208.886719 243.578125 208.886719 L 134.347656 208.886719 C 133.753906 208.886719 133.160156 208.859375 132.566406 208.800781 C 131.972656 208.738281 131.386719 208.652344 130.800781 208.535156 C 130.21875 208.417969 129.640625 208.273438 129.074219 208.101562 C 128.503906 207.925781 127.945312 207.726562 127.394531 207.5 C 126.84375 207.269531 126.308594 207.015625 125.78125 206.734375 C 125.257812 206.453125 124.746094 206.148438 124.253906 205.816406 C 123.757812 205.484375 123.28125 205.132812 122.820312 204.753906 C 122.359375 204.375 121.921875 203.976562 121.5 203.554688 C 121.078125 203.132812 120.679688 202.695312 120.300781 202.234375 C 119.925781 201.773438 119.570312 201.296875 119.238281 200.800781 C 118.910156 200.304688 118.601562 199.796875 118.320312 199.269531 C 118.039062 198.746094 117.785156 198.207031 117.558594 197.65625 C 117.332031 197.109375 117.128906 196.546875 116.957031 195.976562 C 116.785156 195.410156 116.636719 194.832031 116.523438 194.246094 C 116.40625 193.664062 116.316406 193.074219 116.257812 192.484375 C 116.199219 191.890625 116.167969 191.296875 116.167969 190.699219 L 116.167969 169.605469 L 261.753906 169.605469 Z M 319.636719 129.625 L 203.5 129.625 C 202.976562 129.625 202.457031 129.675781 201.941406 129.777344 C 201.425781 129.882812 200.925781 130.035156 200.441406 130.234375 C 199.957031 130.4375 199.496094 130.683594 199.058594 130.972656 C 198.621094 131.265625 198.21875 131.597656 197.847656 131.96875 C 197.476562 132.339844 197.144531 132.746094 196.851562 133.183594 C 196.5625 133.617188 196.3125 134.078125 196.113281 134.566406 C 195.910156 135.050781 195.761719 135.550781 195.65625 136.066406 C 195.554688 136.582031 195.503906 137.101562 195.503906 137.625 L 195.503906 159.417969 L 182.414062 159.417969 L 182.414062 137.632812 C 182.414062 136.945312 182.449219 136.253906 182.515625 135.566406 C 182.585938 134.878906 182.6875 134.199219 182.824219 133.519531 C 182.957031 132.84375 183.125 132.171875 183.328125 131.511719 C 183.527344 130.851562 183.761719 130.203125 184.023438 129.5625 C 184.289062 128.925781 184.585938 128.304688 184.910156 127.695312 C 185.234375 127.085938 185.589844 126.492188 185.976562 125.917969 C 186.359375 125.34375 186.769531 124.789062 187.207031 124.257812 C 187.644531 123.722656 188.109375 123.210938 188.597656 122.722656 C 189.085938 122.234375 189.597656 121.769531 190.128906 121.332031 C 190.664062 120.894531 191.21875 120.484375 191.789062 120.101562 C 192.363281 119.714844 192.957031 119.359375 193.566406 119.035156 C 194.171875 118.710938 194.796875 118.414062 195.433594 118.148438 C 196.070312 117.882812 196.722656 117.652344 197.382812 117.449219 C 198.042969 117.25 198.710938 117.082031 199.386719 116.945312 C 200.066406 116.8125 200.746094 116.710938 201.433594 116.640625 C 202.121094 116.574219 202.808594 116.539062 203.5 116.535156 L 319.636719 116.535156 C 320.6875 116.527344 321.730469 116.464844 322.773438 116.355469 C 323.816406 116.242188 324.847656 116.078125 325.875 115.867188 C 326.902344 115.652344 327.914062 115.390625 328.914062 115.078125 C 329.914062 114.765625 330.898438 114.40625 331.863281 113.996094 C 332.828125 113.589844 333.773438 113.136719 334.691406 112.636719 C 335.613281 112.136719 336.507812 111.589844 337.375 111.003906 C 338.246094 110.414062 339.082031 109.785156 339.886719 109.117188 C 340.695312 108.449219 341.46875 107.742188 342.203125 106.996094 C 342.941406 106.25 343.640625 105.472656 344.304688 104.660156 C 344.964844 103.84375 345.585938 103 346.164062 102.128906 C 346.742188 101.253906 347.277344 100.355469 347.769531 99.425781 C 348.261719 98.5 348.707031 97.554688 349.105469 96.582031 C 349.503906 95.613281 349.855469 94.628906 350.15625 93.625 C 350.457031 92.621094 350.710938 91.601562 350.914062 90.574219 C 351.117188 89.546875 351.269531 88.507812 351.375 87.464844 C 351.476562 86.421875 351.527344 85.375 351.527344 84.328125 C 351.527344 83.277344 351.476562 82.234375 351.371094 81.191406 C 351.269531 80.144531 351.117188 79.109375 350.914062 78.082031 C 350.710938 77.050781 350.457031 76.035156 350.15625 75.03125 C 349.855469 74.027344 349.503906 73.042969 349.105469 72.070312 C 348.707031 71.101562 348.261719 70.15625 347.769531 69.226562 C 347.277344 68.300781 346.742188 67.402344 346.164062 66.527344 C 345.585938 65.652344 344.964844 64.8125 344.304688 63.996094 C 343.640625 63.183594 342.941406 62.40625 342.203125 61.660156 C 341.46875 60.914062 340.695312 60.207031 339.886719 59.539062 C 339.082031 58.867188 338.246094 58.238281 337.375 57.652344 C 336.507812 57.066406 335.613281 56.519531 334.691406 56.019531 C 333.773438 55.519531 332.828125 55.066406 331.863281 54.65625 C 330.898438 54.25 329.914062 53.890625 328.914062 53.578125 C 327.914062 53.265625 326.902344 53.003906 325.875 52.789062 C 324.847656 52.578125 323.816406 52.414062 322.773438 52.300781 C 321.730469 52.191406 320.6875 52.128906 319.636719 52.117188 L 311.246094 52.117188 L 311.246094 39.023438 L 319.636719 39.023438 C 321.113281 39.035156 322.585938 39.121094 324.050781 39.273438 C 325.519531 39.429688 326.976562 39.65625 328.421875 39.957031 C 329.867188 40.253906 331.292969 40.621094 332.703125 41.058594 C 334.109375 41.496094 335.496094 42.003906 336.855469 42.574219 C 338.214844 43.148438 339.542969 43.785156 340.839844 44.488281 C 342.136719 45.191406 343.398438 45.957031 344.621094 46.785156 C 345.84375 47.609375 347.023438 48.496094 348.160156 49.4375 C 349.296875 50.378906 350.382812 51.371094 351.421875 52.421875 C 352.460938 53.46875 353.449219 54.566406 354.378906 55.710938 C 355.3125 56.855469 356.183594 58.039062 357 59.269531 C 357.816406 60.5 358.570312 61.765625 359.265625 63.070312 C 359.957031 64.375 360.582031 65.710938 361.144531 67.074219 C 361.707031 68.4375 362.203125 69.828125 362.628906 71.242188 C 363.054688 72.65625 363.410156 74.085938 363.695312 75.535156 C 363.984375 76.980469 364.199219 78.441406 364.34375 79.910156 C 364.484375 81.378906 364.558594 82.851562 364.558594 84.328125 C 364.558594 85.804688 364.484375 87.277344 364.34375 88.746094 C 364.199219 90.214844 363.984375 91.675781 363.695312 93.121094 C 363.410156 94.570312 363.054688 96 362.628906 97.414062 C 362.203125 98.828125 361.707031 100.214844 361.144531 101.582031 C 360.582031 102.945312 359.957031 104.28125 359.265625 105.585938 C 358.570312 106.886719 357.816406 108.15625 357 109.386719 C 356.183594 110.613281 355.3125 111.800781 354.378906 112.945312 C 353.449219 114.089844 352.460938 115.1875 351.421875 116.234375 C 350.382812 117.28125 349.296875 118.277344 348.160156 119.21875 C 347.023438 120.160156 345.84375 121.046875 344.621094 121.871094 C 343.398438 122.699219 342.136719 123.460938 340.839844 124.164062 C 339.542969 124.867188 338.214844 125.507812 336.855469 126.078125 C 335.496094 126.652344 334.109375 127.160156 332.703125 127.597656 C 331.292969 128.035156 329.867188 128.402344 328.421875 128.699219 C 326.976562 128.996094 325.519531 129.226562 324.050781 129.378906 C 322.585938 129.535156 321.113281 129.621094 319.636719 129.632812 Z M 319.636719 129.625 " fill-opacity="1" fill-rule="nonzero"/></g><path fill="#284b63" d="M 188.957031 345.667969 C 189.554688 345.667969 190.148438 345.636719 190.738281 345.578125 C 191.332031 345.519531 191.921875 345.433594 192.503906 345.316406 C 193.089844 345.199219 193.664062 345.054688 194.234375 344.882812 C 194.804688 344.710938 195.363281 344.511719 195.914062 344.28125 C 196.464844 344.054688 197.003906 343.800781 197.527344 343.519531 C 198.050781 343.238281 198.5625 342.933594 199.058594 342.601562 C 199.550781 342.269531 200.03125 341.917969 200.488281 341.539062 C 200.949219 341.160156 201.390625 340.761719 201.8125 340.339844 C 202.234375 339.917969 202.632812 339.476562 203.011719 339.015625 C 203.386719 338.554688 203.742188 338.078125 204.074219 337.582031 C 204.402344 337.089844 204.710938 336.578125 204.988281 336.050781 C 205.269531 335.527344 205.523438 334.988281 205.753906 334.4375 C 205.980469 333.890625 206.179688 333.328125 206.351562 332.757812 C 206.527344 332.1875 206.671875 331.613281 206.785156 331.027344 C 206.902344 330.441406 206.992188 329.855469 207.046875 329.261719 C 207.105469 328.667969 207.136719 328.074219 207.136719 327.480469 C 207.136719 326.882812 207.105469 326.289062 207.046875 325.695312 C 206.992188 325.105469 206.902344 324.515625 206.785156 323.929688 C 206.671875 323.347656 206.527344 322.769531 206.351562 322.199219 C 206.179688 321.628906 205.980469 321.070312 205.753906 320.519531 C 205.523438 319.96875 205.269531 319.429688 204.988281 318.90625 C 204.710938 318.378906 204.402344 317.871094 204.074219 317.375 C 203.742188 316.878906 203.386719 316.402344 203.011719 315.941406 C 202.632812 315.480469 202.234375 315.039062 201.8125 314.617188 C 201.390625 314.199219 200.949219 313.796875 200.488281 313.421875 C 200.03125 313.042969 199.550781 312.6875 199.058594 312.355469 C 198.5625 312.027344 198.050781 311.71875 197.527344 311.4375 C 197.003906 311.160156 196.464844 310.902344 195.914062 310.675781 C 195.363281 310.449219 194.804688 310.246094 194.234375 310.074219 C 193.664062 309.902344 193.089844 309.757812 192.503906 309.640625 C 191.921875 309.523438 191.332031 309.4375 190.738281 309.378906 C 190.148438 309.320312 189.554688 309.292969 188.957031 309.292969 C 188.363281 309.292969 187.769531 309.320312 187.175781 309.378906 C 186.582031 309.4375 185.996094 309.523438 185.410156 309.640625 C 184.828125 309.757812 184.25 309.902344 183.679688 310.074219 C 183.109375 310.246094 182.550781 310.449219 182 310.675781 C 181.453125 310.902344 180.914062 311.160156 180.390625 311.4375 C 179.863281 311.71875 179.355469 312.027344 178.859375 312.355469 C 178.363281 312.6875 177.886719 313.042969 177.425781 313.421875 C 176.964844 313.796875 176.523438 314.199219 176.105469 314.617188 C 175.683594 315.039062 175.285156 315.480469 174.90625 315.941406 C 174.527344 316.402344 174.175781 316.878906 173.84375 317.375 C 173.511719 317.871094 173.207031 318.378906 172.925781 318.90625 C 172.644531 319.429688 172.390625 319.96875 172.164062 320.519531 C 171.933594 321.070312 171.734375 321.628906 171.5625 322.199219 C 171.390625 322.769531 171.246094 323.347656 171.128906 323.929688 C 171.011719 324.515625 170.925781 325.105469 170.867188 325.695312 C 170.808594 326.289062 170.78125 326.882812 170.78125 327.480469 C 170.78125 328.074219 170.808594 328.667969 170.867188 329.261719 C 170.929688 329.855469 171.015625 330.441406 171.132812 331.027344 C 171.25 331.609375 171.394531 332.1875 171.566406 332.757812 C 171.738281 333.324219 171.941406 333.886719 172.167969 334.4375 C 172.398438 334.984375 172.652344 335.523438 172.933594 336.046875 C 173.210938 336.574219 173.519531 337.082031 173.847656 337.578125 C 174.179688 338.074219 174.535156 338.550781 174.914062 339.011719 C 175.289062 339.472656 175.6875 339.914062 176.109375 340.332031 C 176.53125 340.753906 176.972656 341.152344 177.429688 341.53125 C 177.890625 341.910156 178.367188 342.265625 178.863281 342.59375 C 179.359375 342.925781 179.867188 343.230469 180.394531 343.511719 C 180.917969 343.792969 181.453125 344.046875 182.003906 344.277344 C 182.554688 344.503906 183.113281 344.707031 183.683594 344.878906 C 184.253906 345.050781 184.828125 345.195312 185.414062 345.3125 C 185.996094 345.429688 186.585938 345.519531 187.175781 345.578125 C 187.769531 345.636719 188.363281 345.664062 188.957031 345.667969 Z M 188.957031 319.476562 C 189.484375 319.476562 190.003906 319.527344 190.519531 319.628906 C 191.035156 319.734375 191.535156 319.882812 192.019531 320.085938 C 192.503906 320.285156 192.964844 320.535156 193.402344 320.824219 C 193.839844 321.117188 194.242188 321.449219 194.613281 321.820312 C 194.984375 322.191406 195.316406 322.597656 195.609375 323.035156 C 195.898438 323.46875 196.148438 323.929688 196.347656 324.417969 C 196.546875 324.902344 196.699219 325.402344 196.800781 325.917969 C 196.90625 326.433594 196.957031 326.953125 196.957031 327.480469 C 196.957031 328.003906 196.90625 328.523438 196.800781 329.039062 C 196.699219 329.554688 196.546875 330.054688 196.347656 330.542969 C 196.148438 331.027344 195.898438 331.488281 195.609375 331.925781 C 195.316406 332.363281 194.984375 332.765625 194.613281 333.136719 C 194.242188 333.507812 193.839844 333.839844 193.402344 334.132812 C 192.964844 334.425781 192.503906 334.671875 192.019531 334.871094 C 191.535156 335.074219 191.035156 335.226562 190.519531 335.328125 C 190.003906 335.429688 189.484375 335.480469 188.957031 335.480469 C 188.433594 335.480469 187.914062 335.429688 187.398438 335.328125 C 186.882812 335.226562 186.382812 335.074219 185.898438 334.871094 C 185.410156 334.671875 184.949219 334.425781 184.515625 334.132812 C 184.078125 333.839844 183.671875 333.507812 183.300781 333.136719 C 182.929688 332.765625 182.597656 332.363281 182.308594 331.925781 C 182.015625 331.488281 181.769531 331.027344 181.566406 330.542969 C 181.367188 330.054688 181.214844 329.554688 181.113281 329.039062 C 181.011719 328.523438 180.960938 328.003906 180.960938 327.480469 C 180.960938 326.953125 181.011719 326.433594 181.113281 325.917969 C 181.21875 325.402344 181.367188 324.902344 181.570312 324.417969 C 181.769531 323.933594 182.015625 323.472656 182.308594 323.035156 C 182.601562 322.597656 182.933594 322.195312 183.304688 321.820312 C 183.675781 321.449219 184.078125 321.117188 184.515625 320.828125 C 184.953125 320.535156 185.414062 320.289062 185.898438 320.085938 C 186.382812 319.886719 186.882812 319.734375 187.398438 319.632812 C 187.914062 319.527344 188.433594 319.476562 188.957031 319.476562 Z M 188.957031 319.476562 " fill-opacity="1" fill-rule="nonzero"/></svg>